<svg width="32" height="32" viewBox="0 0 32 32" fill="none" xmlns="http://www.w3.org/2000/svg">
<path d="M14.1549 27.446C13.9297 27.3112 13.6429 27.3384 13.4471 27.5132L11.1632 29.5524C10.9776 29.7182 10.9135 29.9813 11.0022 30.2138C11.0909 30.4464 11.3139 30.6 11.5628 30.6H27.7288C27.9301 30.6 28.1179 30.4991 28.229 30.3313C28.3402 30.1635 28.3598 29.9512 28.2813 29.7659L16.4169 1.76591C16.3229 1.54409 16.1053 1.4 15.8644 1.4C15.6235 1.4 15.4059 1.54409 15.312 1.76591L3.44755 29.7659C3.36903 29.9512 3.38864 30.1635 3.49977 30.3313C3.6109 30.4991 3.79875 30.6 4 30.6H5.51864C5.75933 30.6 5.97672 30.4562 6.07085 30.2347L15.8641 7.18916L24.6913 27.987L15.2476 28.1003L14.1549 27.446Z" fill="white" stroke="white" stroke-width="1.2" stroke-linejoin="round"/>
</svg>
