<svg width="140" height="80" viewBox="0 0 140 80" fill="none" xmlns="http://www.w3.org/2000/svg">
<path d="M35.872 38.936L34.912 37.272L38.496 35.224C41.44 33.6027 42.912 31.0213 42.912 27.48C42.912 20.8667 37.8773 17.56 27.808 17.56H21.92V65.56H20V15.64H27.808C33.44 15.64 37.6853 16.6853 40.544 18.776C43.4027 20.824 44.832 23.7253 44.832 27.48C44.832 31.7467 43.04 34.8827 39.456 36.888L35.872 38.936Z" fill="white"/>
<path d="M60.9199 50.84H78.131L65.011 19.928L51.059 52.76H49.011L65.011 15L81.011 52.76H60.9199V50.84Z" fill="white"/>
<path d="M98.9199 50.84H119.033V18.328L104.632 32.728L90.2325 18.328V52.76L88.3125 52.696V15.64H90.2325L104.632 30.04L119.033 15.64H120.952V52.76L98.9199 52.696V50.84Z" fill="white"/>
<path d="M35.872 38.936L34.912 37.272L38.496 35.224C41.44 33.6027 42.912 31.0213 42.912 27.48C42.912 20.8667 37.8773 17.56 27.808 17.56H21.92V65.56H20V15.64H27.808C33.44 15.64 37.6853 16.6853 40.544 18.776C43.4027 20.824 44.832 23.7253 44.832 27.48C44.832 31.7467 43.04 34.8827 39.456 36.888L35.872 38.936Z" stroke="white" stroke-width="2" stroke-linejoin="round"/>
<path d="M60.9199 50.84H78.131L65.011 19.928L51.059 52.76H49.011L65.011 15L81.011 52.76H60.9199V50.84Z" stroke="white" stroke-width="2" stroke-linejoin="round"/>
<path d="M98.9199 50.84H119.033V18.328L104.632 32.728L90.2325 18.328V52.76L88.3125 52.696V15.64H90.2325L104.632 30.04L119.033 15.64H120.952V52.76L98.9199 52.696V50.84Z" stroke="white" stroke-width="2" stroke-linejoin="round"/>
</svg>
