<svg width="123" height="48" viewBox="0 0 123 48"  fill="none" xmlns="http://www.w3.org/2000/svg" shape-rendering="geometricPrecision">
<path d="M19.0392 40.4461L20.7419 41.4657L35.1907 41.2924L21.8136 9.77458L7.58813 43.25H5.5L21.8136 4.75L38.1271 43.25H15.8989L19.0392 40.4461Z" fill="white"/>
<path d="M61.935 18.2426C61.6893 18.3829 61.3764 18.2983 61.235 18.0532C61.0928 17.8067 61.178 17.4915 61.4252 17.3503L62.8944 16.5107C64.4693 15.6434 65.2568 14.2625 65.2568 12.368C65.2568 8.83024 62.5635 7.06134 57.1769 7.06134H54.7404C54.3464 7.06134 54.0271 7.38068 54.0271 7.77461V29.4864C54.0271 29.7701 53.7972 30 53.5136 30C53.2299 30 53 29.7701 53 29.4864V6.7475C53 6.35358 53.3193 6.03424 53.7133 6.03424H57.1769C60.1897 6.03424 62.4608 6.59344 63.99 7.71184C65.5193 8.80742 66.2839 10.3595 66.2839 12.368C66.2839 14.6505 65.3253 16.3281 63.408 17.4009L61.935 18.2426Z" fill="white"/>
<path d="M70.3364 28.7275C70.3364 28.3336 70.6557 28.0143 71.0497 28.0143H71.8828C72.2767 28.0143 72.596 28.3336 72.596 28.7275V29.2867C72.596 29.6807 72.2767 30 71.8828 30H71.0497C70.6557 30 70.3364 29.6807 70.3364 29.2867V28.7275Z" fill="white"/>
<path d="M80.9943 29.4864C80.9943 29.2028 81.2243 28.9729 81.5079 28.9729H90.8747C91.3697 28.9729 91.7142 28.4811 91.545 28.0159L85.305 10.8559C85.0774 10.2299 84.1921 10.2298 83.9644 10.8558L77.1232 29.6612C77.0492 29.8646 76.8559 30 76.6395 30C76.2822 30 76.0336 29.645 76.1557 29.3092L83.9645 7.84266C84.1922 7.21674 85.0774 7.21674 85.3051 7.84266L93.017 29.0429C93.1863 29.5081 92.8417 30 92.3467 30H81.5079C81.2243 30 80.9943 29.7701 80.9943 29.4864Z" fill="white"/>
<path d="M96.6827 28.7275C96.6827 28.3336 97.002 28.0143 97.396 28.0143H98.229C98.623 28.0143 98.9423 28.3336 98.9423 28.7275V29.2867C98.9423 29.6807 98.623 30 98.229 30H97.396C97.002 30 96.6827 29.6807 96.6827 29.2867V28.7275Z" fill="white"/>
<path d="M109.525 29.5019C109.525 29.2281 109.746 29.0057 110.02 29.0039L114.713 28.9729H120.744C121.138 28.9729 121.458 28.6536 121.458 28.2596V11.6793C121.458 10.9162 120.421 10.6861 120.098 11.3776L114.401 23.5812C114.145 24.1302 113.364 24.1299 113.108 23.5807L107.411 11.3499C107.088 10.6579 106.051 10.8877 106.051 11.6511V29.469C106.051 29.7594 105.811 29.992 105.52 29.9823C105.244 29.9731 105.024 29.746 105.024 29.469V6.6273C105.024 6.28085 105.305 6 105.651 6C105.895 6 106.117 6.14134 106.22 6.36241L113.108 21.1499C113.364 21.6991 114.145 21.6994 114.401 21.1504L121.296 6.38107C121.395 6.16828 121.605 6.02931 121.84 6.02148C122.193 6.00974 122.485 6.29227 122.485 6.64492V29.2867C122.485 29.6807 122.165 30 121.771 30H110.023C109.748 30 109.525 29.777 109.525 29.5019Z" fill="white"/>
<path d="M78.884 39.668C79.356 39.756 79.756 39.996 80.084 40.388C80.412 40.78 80.576 41.236 80.576 41.756C80.576 42.18 80.468 42.564 80.252 42.908C80.044 43.244 79.736 43.512 79.328 43.712C78.92 43.904 78.432 44 77.864 44H74.96V35.612H77.78C78.628 35.612 79.272 35.808 79.712 36.2C80.16 36.592 80.384 37.1 80.384 37.724C80.384 38.244 80.244 38.668 79.964 38.996C79.684 39.316 79.324 39.54 78.884 39.668ZM75.8 39.32H77.756C78.324 39.32 78.76 39.188 79.064 38.924C79.376 38.652 79.532 38.28 79.532 37.808C79.532 37.344 79.376 36.98 79.064 36.716C78.76 36.452 78.312 36.32 77.72 36.32H75.8V39.32ZM77.804 43.292C78.412 43.292 78.884 43.148 79.22 42.86C79.564 42.572 79.736 42.176 79.736 41.672C79.736 41.168 79.556 40.768 79.196 40.472C78.844 40.168 78.368 40.016 77.768 40.016H75.8V43.292H77.804Z" fill="white"/>
<path d="M83.1402 35.12V44H82.3002V35.12H83.1402Z" fill="white"/>
<path d="M88.0903 44.096C87.4743 44.096 86.9183 43.96 86.4223 43.688C85.9343 43.408 85.5463 43.016 85.2583 42.512C84.9783 42 84.8383 41.404 84.8383 40.724C84.8383 40.044 84.9823 39.452 85.2703 38.948C85.5583 38.436 85.9503 38.044 86.4463 37.772C86.9423 37.492 87.4983 37.352 88.1143 37.352C88.7303 37.352 89.2863 37.492 89.7823 37.772C90.2863 38.044 90.6783 38.436 90.9583 38.948C91.2463 39.452 91.3903 40.044 91.3903 40.724C91.3903 41.396 91.2463 41.988 90.9583 42.5C90.6703 43.012 90.2743 43.408 89.7703 43.688C89.2663 43.96 88.7063 44.096 88.0903 44.096ZM88.0903 43.364C88.5223 43.364 88.9223 43.268 89.2903 43.076C89.6583 42.876 89.9543 42.58 90.1783 42.188C90.4103 41.788 90.5263 41.3 90.5263 40.724C90.5263 40.148 90.4143 39.664 90.1903 39.272C89.9663 38.872 89.6703 38.576 89.3023 38.384C88.9343 38.184 88.5343 38.084 88.1023 38.084C87.6703 38.084 87.2703 38.184 86.9023 38.384C86.5343 38.576 86.2383 38.872 86.0143 39.272C85.7983 39.664 85.6903 40.148 85.6903 40.724C85.6903 41.3 85.7983 41.788 86.0143 42.188C86.2383 42.58 86.5303 42.876 86.8903 43.076C87.2583 43.268 87.6583 43.364 88.0903 43.364Z" fill="white"/>
<path d="M95.8496 37.352C96.4656 37.352 97.0016 37.496 97.4576 37.784C97.9136 38.072 98.2416 38.436 98.4416 38.876V37.448H99.2816V44.168C99.2816 44.768 99.1496 45.3 98.8856 45.764C98.6296 46.228 98.2696 46.584 97.8056 46.832C97.3416 47.088 96.8136 47.216 96.2216 47.216C95.3816 47.216 94.6816 47.016 94.1216 46.616C93.5696 46.216 93.2256 45.672 93.0896 44.984H93.9176C94.0616 45.44 94.3336 45.804 94.7336 46.076C95.1416 46.348 95.6376 46.484 96.2216 46.484C96.6456 46.484 97.0256 46.392 97.3616 46.208C97.6976 46.032 97.9616 45.768 98.1536 45.416C98.3456 45.064 98.4416 44.648 98.4416 44.168V42.548C98.2336 42.996 97.9016 43.368 97.4456 43.664C96.9976 43.952 96.4656 44.096 95.8496 44.096C95.2496 44.096 94.7096 43.956 94.2296 43.676C93.7576 43.396 93.3856 43 93.1136 42.488C92.8496 41.976 92.7176 41.384 92.7176 40.712C92.7176 40.04 92.8496 39.452 93.1136 38.948C93.3856 38.436 93.7576 38.044 94.2296 37.772C94.7096 37.492 95.2496 37.352 95.8496 37.352ZM98.4416 40.724C98.4416 40.196 98.3336 39.732 98.1176 39.332C97.9016 38.932 97.6056 38.624 97.2296 38.408C96.8616 38.192 96.4536 38.084 96.0056 38.084C95.5416 38.084 95.1256 38.188 94.7576 38.396C94.3896 38.604 94.0976 38.908 93.8816 39.308C93.6736 39.7 93.5696 40.168 93.5696 40.712C93.5696 41.248 93.6736 41.72 93.8816 42.128C94.0976 42.528 94.3896 42.836 94.7576 43.052C95.1256 43.26 95.5416 43.364 96.0056 43.364C96.4536 43.364 96.8616 43.256 97.2296 43.04C97.6056 42.824 97.9016 42.516 98.1176 42.116C98.3336 41.716 98.4416 41.252 98.4416 40.724Z" fill="white"/>
<path d="M44 0.500001C44 0.223859 44.2239 0 44.5 0C44.7761 0 45 0.223858 45 0.5V47.5C45 47.7761 44.7761 48 44.5 48C44.2239 48 44 47.7761 44 47.5V0.500001Z" fill="white"/>
</svg>
